#Comment line ignore any data following # character 
#Hierarchical Translation and Rotation (.htr) file 
[Header]	
#Header keywords are followed by a single value 
FileType HTR		#Single word string
DataType HTRS		#Translation followed by rotation and scale data
FileVersion 1		#integer
NumSegments 84		#integer
NumFrames 2		#integer
DataFrameRate 30		#integer, data frame rate in this file
EulerRotationOrder ZYX
CalibrationUnits mm
RotationUnits Degrees
GlobalAxisofGravity Y
BoneLengthAxis Y
ScaleFactor 1.00
[SegmentNames&Hierarchy]
#CHILD	PARENT
MASTER GLOBAL
root MASTER
chest root
L_mid_tent01 root
R_mid_tent01 root
spine01 root
Bip01_Neck chest
L_humerus chest
R_humerus chest
weapon_bone chest
Bip01_Head Bip01_Neck
eye_left_bone Bip01_Head
eye_right_bone Bip01_Head
L_forearm L_humerus
L_front_hand L_forearm
L_weapon_bone L_forearm
L_front_hand01_01 L_front_hand
L_front_hand02_01 L_front_hand
L_front_hand03_01 L_front_hand
L_front_hand01_02 L_front_hand01_01
L_front_hand02_02 L_front_hand02_01
L_front_hand03_02 L_front_hand03_01
R_forearm R_humerus
R_front_hand R_forearm
R_weapon_bone R_forearm
R_front_hand01_01 R_front_hand
R_front_hand02_01 R_front_hand
R_front_hand03_01 R_front_hand
R_front_hand01_02 R_front_hand01_01
R_front_hand02_02 R_front_hand02_01
R_front_hand03_02 R_front_hand03_01
null_rope01_connect L_mid_tent01
Rope1_Seg01 null_rope01_connect
Rope1_Seg02 Rope1_Seg01
Rope1_Seg03 Rope1_Seg02
Rope1_Seg04 Rope1_Seg03
Rope1_Seg05 Rope1_Seg04
Rope1_Seg06 Rope1_Seg05
Rope1_Seg07 Rope1_Seg06
Rope1_Seg09 Rope1_Seg07
L_mid_hand01 Rope1_Seg09
L_mid_hand02 Rope1_Seg09
L_mid_hand03 Rope1_Seg09
null_rope02_connect R_mid_tent01
Rope2_Seg01 null_rope02_connect
Rope2_Seg02 Rope2_Seg01
Rope2_Seg03 Rope2_Seg02
Rope2_Seg04 Rope2_Seg03
Rope2_Seg05 Rope2_Seg04
Rope2_Seg06 Rope2_Seg05
Rope2_Seg07 Rope2_Seg06
Rope2_Seg09 Rope2_Seg07
R_mid_hand01 Rope2_Seg09
R_mid_hand02 Rope2_Seg09
R_mid_hand03 Rope2_Seg09
spine02 spine01
spine03 spine02
pelvis spine03
null_rope03_connect pelvis
null_rope04_connect pelvis
Rope3_Seg01 null_rope03_connect
Rope3_Seg02 Rope3_Seg01
Rope3_Seg03 Rope3_Seg02
Rope3_Seg04 Rope3_Seg03
Rope3_Seg05 Rope3_Seg04
Rope3_Seg06 Rope3_Seg05
Rope3_Seg07 Rope3_Seg06
Rope3_Seg08 Rope3_Seg07
Rope3_Seg09 Rope3_Seg08
R_rear_hand01 Rope3_Seg09
R_rear_hand02 Rope3_Seg09
R_rear_hand03 Rope3_Seg09
Rope4_Seg01 null_rope04_connect
Rope4_Seg02 Rope4_Seg01
Rope4_Seg03 Rope4_Seg02
Rope4_Seg04 Rope4_Seg03
Rope4_Seg05 Rope4_Seg04
Rope4_Seg06 Rope4_Seg05
Rope4_Seg07 Rope4_Seg06
Rope4_Seg08 Rope4_Seg07
Rope4_Seg09 Rope4_Seg08
L_rear_hand01 Rope4_Seg09
L_rear_hand02 Rope4_Seg09
L_rear_hand03 Rope4_Seg09
[BasePosition]
#SegmentName Tx, Ty, Tz, Rx, Ry, Rz, BoneLength
MASTER 0.000000 0.000000 0.000000 -90.000000 0.000000 0.000000 10.000000 
root 0.000000 0.000000 0.000000 0.000000 0.000000 0.000000 10.000000 
chest 0.000000 0.000000 0.000000 0.000000 0.000000 0.000000 10.000000 
L_mid_tent01 0.000000 0.000000 0.000000 0.000000 0.000000 0.000000 10.000000 
R_mid_tent01 0.000000 0.000000 0.000000 0.000000 0.000000 0.000000 10.000000 
spine01 0.000000 0.000000 0.000000 0.000000 0.000000 0.000000 10.000000 
Bip01_Neck 0.000000 0.000000 0.000000 0.000000 0.000000 0.000000 10.000000 
L_humerus 0.000000 0.000000 0.000000 0.000000 0.000000 0.000000 10.000000 
R_humerus 0.000000 0.000000 0.000000 0.000000 0.000000 0.000000 10.000000 
weapon_bone 0.000000 0.000000 0.000000 0.000000 0.000000 0.000000 10.000000 
Bip01_Head 0.000000 0.000000 0.000000 0.000000 0.000000 0.000000 10.000000 
eye_left_bone 0.000000 0.000000 0.000000 0.000000 0.000000 0.000000 10.000000 
eye_right_bone 0.000000 0.000000 0.000000 0.000000 0.000000 0.000000 10.000000 
L_forearm 0.000000 0.000000 0.000000 0.000000 0.000000 0.000000 10.000000 
L_front_hand 0.000000 0.000000 0.000000 0.000000 0.000000 0.000000 10.000000 
L_weapon_bone 0.000000 0.000000 0.000000 0.000000 0.000000 0.000000 10.000000 
L_front_hand01_01 0.000000 0.000000 0.000000 0.000000 0.000000 0.000000 10.000000 
L_front_hand02_01 0.000000 0.000000 0.000000 0.000000 0.000000 0.000000 10.000000 
L_front_hand03_01 0.000000 0.000000 0.000000 0.000000 0.000000 0.000000 10.000000 
L_front_hand01_02 0.000000 0.000000 0.000000 0.000000 0.000000 0.000000 10.000000 
L_front_hand02_02 0.000000 0.000000 0.000000 0.000000 0.000000 0.000000 10.000000 
L_front_hand03_02 0.000000 0.000000 0.000000 0.000000 0.000000 0.000000 10.000000 
R_forearm 0.000000 0.000000 0.000000 0.000000 0.000000 0.000000 10.000000 
R_front_hand 0.000000 0.000000 0.000000 0.000000 0.000000 0.000000 10.000000 
R_weapon_bone 0.000000 0.000000 0.000000 0.000000 0.000000 0.000000 10.000000 
R_front_hand01_01 0.000000 0.000000 0.000000 0.000000 0.000000 0.000000 10.000000 
R_front_hand02_01 0.000000 0.000000 0.000000 0.000000 0.000000 0.000000 10.000000 
R_front_hand03_01 0.000000 0.000000 0.000000 0.000000 0.000000 0.000000 10.000000 
R_front_hand01_02 0.000000 0.000000 0.000000 0.000000 0.000000 0.000000 10.000000 
R_front_hand02_02 0.000000 0.000000 0.000000 0.000000 0.000000 0.000000 10.000000 
R_front_hand03_02 0.000000 0.000000 0.000000 0.000000 0.000000 0.000000 10.000000 
null_rope01_connect 0.000000 0.000000 0.000000 0.000000 0.000000 0.000000 10.000000 
Rope1_Seg01 0.000000 0.000000 0.000000 0.000000 0.000000 0.000000 10.000000 
Rope1_Seg02 0.000000 0.000000 0.000000 0.000000 0.000000 0.000000 10.000000 
Rope1_Seg03 0.000000 0.000000 0.000000 0.000000 0.000000 0.000000 10.000000 
Rope1_Seg04 0.000000 0.000000 0.000000 0.000000 0.000000 0.000000 10.000000 
Rope1_Seg05 0.000000 0.000000 0.000000 0.000000 0.000000 0.000000 10.000000 
Rope1_Seg06 0.000000 0.000000 0.000000 0.000000 0.000000 0.000000 10.000000 
Rope1_Seg07 0.000000 0.000000 0.000000 0.000000 0.000000 0.000000 10.000000 
Rope1_Seg09 0.000000 0.000000 0.000000 0.000000 0.000000 0.000000 10.000000 
L_mid_hand01 0.000000 0.000000 0.000000 0.000000 0.000000 0.000000 10.000000 
L_mid_hand02 0.000000 0.000000 0.000000 0.000000 0.000000 0.000000 10.000000 
L_mid_hand03 0.000000 0.000000 0.000000 0.000000 0.000000 0.000000 10.000000 
null_rope02_connect 0.000000 0.000000 0.000000 0.000000 0.000000 0.000000 10.000000 
Rope2_Seg01 0.000000 0.000000 0.000000 0.000000 0.000000 0.000000 10.000000 
Rope2_Seg02 0.000000 0.000000 0.000000 0.000000 0.000000 0.000000 10.000000 
Rope2_Seg03 0.000000 0.000000 0.000000 0.000000 0.000000 0.000000 10.000000 
Rope2_Seg04 0.000000 0.000000 0.000000 0.000000 0.000000 0.000000 10.000000 
Rope2_Seg05 0.000000 0.000000 0.000000 0.000000 0.000000 0.000000 10.000000 
Rope2_Seg06 0.000000 0.000000 0.000000 0.000000 0.000000 0.000000 10.000000 
Rope2_Seg07 0.000000 0.000000 0.000000 0.000000 0.000000 0.000000 10.000000 
Rope2_Seg09 0.000000 0.000000 0.000000 0.000000 0.000000 0.000000 10.000000 
R_mid_hand01 0.000000 0.000000 0.000000 0.000000 0.000000 0.000000 10.000000 
R_mid_hand02 0.000000 0.000000 0.000000 0.000000 0.000000 0.000000 10.000000 
R_mid_hand03 0.000000 0.000000 0.000000 0.000000 0.000000 0.000000 10.000000 
spine02 0.000000 0.000000 0.000000 0.000000 0.000000 0.000000 10.000000 
spine03 0.000000 0.000000 0.000000 0.000000 0.000000 0.000000 10.000000 
pelvis 0.000000 0.000000 0.000000 0.000000 0.000000 0.000000 10.000000 
null_rope03_connect 0.000000 0.000000 0.000000 0.000000 0.000000 0.000000 10.000000 
null_rope04_connect 0.000000 0.000000 0.000000 0.000000 0.000000 0.000000 10.000000 
Rope3_Seg01 0.000000 0.000000 0.000000 0.000000 0.000000 0.000000 10.000000 
Rope3_Seg02 0.000000 0.000000 0.000000 0.000000 0.000000 0.000000 10.000000 
Rope3_Seg03 0.000000 0.000000 0.000000 0.000000 0.000000 0.000000 10.000000 
Rope3_Seg04 0.000000 0.000000 0.000000 0.000000 0.000000 0.000000 10.000000 
Rope3_Seg05 0.000000 0.000000 0.000000 0.000000 0.000000 0.000000 10.000000 
Rope3_Seg06 0.000000 0.000000 0.000000 0.000000 0.000000 0.000000 10.000000 
Rope3_Seg07 0.000000 0.000000 0.000000 0.000000 0.000000 0.000000 10.000000 
Rope3_Seg08 0.000000 0.000000 0.000000 0.000000 0.000000 0.000000 10.000000 
Rope3_Seg09 0.000000 0.000000 0.000000 0.000000 0.000000 0.000000 10.000000 
R_rear_hand01 0.000000 0.000000 0.000000 0.000000 0.000000 0.000000 10.000000 
R_rear_hand02 0.000000 0.000000 0.000000 0.000000 0.000000 0.000000 10.000000 
R_rear_hand03 0.000000 0.000000 0.000000 0.000000 0.000000 0.000000 10.000000 
Rope4_Seg01 0.000000 0.000000 0.000000 0.000000 0.000000 0.000000 10.000000 
Rope4_Seg02 0.000000 0.000000 0.000000 0.000000 0.000000 0.000000 10.000000 
Rope4_Seg03 0.000000 0.000000 0.000000 0.000000 0.000000 0.000000 10.000000 
Rope4_Seg04 0.000000 0.000000 0.000000 0.000000 0.000000 0.000000 10.000000 
Rope4_Seg05 0.000000 0.000000 0.000000 0.000000 0.000000 0.000000 10.000000 
Rope4_Seg06 0.000000 0.000000 0.000000 0.000000 0.000000 0.000000 10.000000 
Rope4_Seg07 0.000000 0.000000 0.000000 0.000000 0.000000 0.000000 10.000000 
Rope4_Seg08 0.000000 0.000000 0.000000 0.000000 0.000000 0.000000 10.000000 
Rope4_Seg09 0.000000 0.000000 0.000000 0.000000 0.000000 0.000000 10.000000 
L_rear_hand01 0.000000 0.000000 0.000000 0.000000 0.000000 0.000000 10.000000 
L_rear_hand02 0.000000 0.000000 0.000000 0.000000 0.000000 0.000000 10.000000 
L_rear_hand03 0.000000 0.000000 0.000000 0.000000 0.000000 0.000000 10.000000 
#Beginning of Data. Separated by tabs
#Fr	Tx	Ty	Tz	Rx	Ry	Rz	SF
[MASTER]
34 0.000000 0.000000 0.000000 0.001660 0.001660 0.001660 0.000000
35 0.000000 0.000000 0.000000 0.001660 0.001660 0.001660 0.000000
[root]
34 -36.414413 8.556567 1487.187012 -91.706375 7.188744 -90.037125 1487.657349
35 -35.646748 7.704998 1490.318115 -91.706375 7.188744 -90.037125 1490.764282
[chest]
34 -84.512650 -34.090519 0.000000 -2.117274 0.462005 -179.268204 91.129311
35 -84.512650 -34.090519 0.000000 -2.117274 0.462005 -179.268204 91.129311
[L_mid_tent01]
34 27.299511 22.177458 -249.918259 -11.212391 7.173965 46.128521 252.381134
35 27.299511 22.177458 -249.918259 -11.212391 7.173965 46.128521 252.381134
[R_mid_tent01]
34 23.228794 24.509907 226.238495 -173.453110 -7.865565 48.320805 228.744751
35 23.228794 24.509907 226.238495 -173.453110 -7.865565 48.320805 228.744751
[spine01]
34 -0.361383 -0.195265 0.000000 -0.000001 -0.000007 22.052340 0.410763
35 -0.361383 -0.195265 0.000000 -0.000001 -0.000007 22.052340 0.410763
[Bip01_Neck]
34 165.484543 71.581718 0.000119 175.896118 1.177290 24.871183 180.302734
35 165.484543 71.581718 0.000119 175.896118 1.177290 24.871183 180.302734
[L_humerus]
34 -13.983130 -135.272980 -120.471481 177.317520 0.814944 177.327347 181.680161
35 -13.983130 -135.272980 -120.471481 177.317520 0.814944 177.327347 181.680161
[R_humerus]
34 -13.983309 -135.273102 125.287651 -179.087967 -0.295690 175.068390 184.909012
35 -13.983309 -135.273102 125.287651 -179.087967 -0.295690 175.068390 184.909012
[weapon_bone]
34 235.964890 -300.705902 0.000000 0.000000 -89.951546 -128.212341 382.234833
35 235.964890 -300.705902 0.000000 0.000000 -89.951546 -128.212341 382.234833
[Bip01_Head]
34 97.775497 22.186661 5.309563 3.366012 3.339071 -18.399078 100.401627
35 97.775497 22.186661 5.309563 3.366011 3.339070 -18.399073 100.401627
[eye_left_bone]
34 -24.626970 125.451866 -64.772606 0.000000 -90.000000 -99.840431 143.318359
35 -24.626970 125.451866 -64.772606 0.000000 -90.000000 -99.840431 143.318359
[eye_right_bone]
34 -24.626970 125.451866 64.327362 0.000000 -89.965736 80.156380 143.117676
35 -24.626970 125.451866 64.327362 0.000000 -89.965736 80.156380 143.117676
[L_forearm]
34 322.776093 0.000000 -0.000119 0.001372 -0.001904 -161.553818 322.776093
35 322.776093 0.000000 -0.000119 0.001372 -0.001904 -161.553818 322.776093
[L_front_hand]
34 241.149185 -0.042021 -3.300071 -179.659958 -2.242151 -0.019832 241.171753
35 241.149185 -0.042021 -3.300071 -179.659958 -2.242151 -0.019832 241.171753
[L_weapon_bone]
34 156.183838 0.000000 0.000000 0.000014 0.000007 0.000001 156.183838
35 156.183838 0.000000 0.000000 0.000014 0.000007 0.000001 156.183838
[L_front_hand01_01]
34 86.095154 20.947098 -0.655860 0.405585 -0.442306 -4.620490 88.609184
35 86.095154 20.947098 -0.655860 0.405585 -0.442306 -4.620490 88.609184
[L_front_hand02_01]
34 86.935165 -11.437475 24.513514 116.959450 3.630817 1.495453 91.046425
35 86.935165 -11.437475 24.513514 116.959450 3.630817 1.495453 91.046425
[L_front_hand03_01]
34 86.637497 -14.123976 -20.424902 -118.419884 -4.660555 -0.155069 90.126129
35 86.637497 -14.123976 -20.424902 -118.419884 -4.660555 -0.155069 90.126129
[L_front_hand01_02]
34 71.020905 -0.000179 0.000030 0.000004 -0.000005 -8.379269 71.020905
35 71.020905 -0.000179 0.000030 0.000004 -0.000005 -8.379269 71.020905
[L_front_hand02_02]
34 71.020927 -0.000119 0.000060 -0.000005 -0.000004 -8.379259 71.020927
35 71.020927 -0.000119 0.000060 -0.000005 -0.000004 -8.379259 71.020927
[L_front_hand03_02]
34 71.020905 -0.000060 0.000060 0.000015 -0.000040 -8.379267 71.020905
35 71.020905 -0.000060 0.000060 0.000015 -0.000040 -8.379267 71.020905
[R_forearm]
34 322.776428 -0.000060 0.000030 0.066610 0.203476 -163.260239 322.776428
35 322.776428 -0.000060 0.000030 0.066610 0.203476 -163.260239 322.776428
[R_front_hand]
34 238.847015 -0.006795 2.210259 -0.270529 1.703932 2.322530 238.857239
35 238.847015 -0.006795 2.210259 -0.270529 1.703932 2.322530 238.857239
[R_weapon_bone]
34 155.664093 0.002503 -0.000030 0.003487 0.001180 -90.988930 155.664078
35 155.664093 0.002503 -0.000030 0.003487 0.001180 -90.988930 155.664078
[R_front_hand01_01]
34 87.624611 14.231146 22.918642 -116.960205 3.496675 -1.324138 91.683487
35 87.624611 14.231146 22.918642 -116.960213 3.496675 -1.324139 91.683487
[R_front_hand02_01]
34 89.356956 14.367283 -19.491137 118.419647 -4.257089 0.609827 92.579636
35 89.356956 14.367283 -19.491137 118.419647 -4.257089 0.609827 92.579636
[R_front_hand03_01]
34 87.286232 -22.307278 -0.143439 -0.387970 -0.231462 4.232001 90.091743
35 87.286232 -22.307278 -0.143439 -0.387970 -0.231462 4.232001 90.091743
[R_front_hand01_02]
34 71.020905 0.000060 0.000119 -0.000005 -0.000020 8.379271 71.020905
35 71.020905 0.000060 0.000119 -0.000005 -0.000020 8.379271 71.020905
[R_front_hand02_02]
34 71.020844 -0.000030 -0.000119 0.000000 -0.000021 8.379271 71.020836
35 71.020844 -0.000030 -0.000119 0.000000 -0.000021 8.379271 71.020836
[R_front_hand03_02]
34 71.020905 0.000000 0.000030 -0.000001 -0.000020 8.379275 71.020905
35 71.020905 0.000000 0.000030 -0.000001 -0.000020 8.379275 71.020905
[null_rope01_connect]
34 328.732483 0.000000 -0.000238 160.552872 -75.066147 -124.625038 328.732483
35 328.732483 0.000000 -0.000238 160.552872 -75.066147 -124.625038 328.732483
[Rope1_Seg01]
34 0.000000 0.000000 0.000000 -110.612267 57.268539 -107.251266 0.000000
35 0.000000 0.000000 0.000000 -107.758614 57.271717 -105.433067 0.000000
[Rope1_Seg02]
34 139.999863 -0.000179 0.000000 15.736519 -0.902544 -11.354950 139.999863
35 139.999863 -0.000179 0.000000 15.615875 -1.407796 -11.121182 139.999863
[Rope1_Seg03]
34 139.999924 0.000060 -0.000060 12.404531 -2.254017 -6.057500 139.999924
35 139.999924 0.000060 -0.000060 12.031545 -2.793529 -5.746929 139.999924
[Rope1_Seg04]
34 139.999924 -0.000060 -0.000119 6.959645 -1.782372 -2.693683 139.999924
35 139.999924 -0.000060 -0.000119 6.803703 -2.416587 -2.337442 139.999924
[Rope1_Seg05]
34 139.999832 0.000119 -0.000060 9.279284 -2.575763 -3.230333 139.999832
35 139.999832 0.000119 -0.000060 7.845735 -2.020936 -3.340262 139.999832
[Rope1_Seg06]
34 139.999954 0.000119 -0.000060 16.941818 -5.560717 -5.183365 139.999954
35 139.999954 0.000119 -0.000060 15.670964 -3.623227 -6.323448 139.999954
[Rope1_Seg07]
34 139.999985 0.000060 0.000000 18.869621 -9.280125 -4.607017 139.999985
35 139.999985 0.000060 0.000000 22.261398 -7.139907 -7.214677 139.999985
[Rope1_Seg09]
34 121.602913 0.000119 -0.000089 -89.793175 -1.359789 0.847147 121.602913
35 121.602913 0.000119 -0.000089 -89.793175 -1.359789 0.847147 121.602913
[L_mid_hand01]
34 103.859421 1.038730 8.195221 106.855484 -31.239275 -9.461397 104.187431
35 103.859421 1.038730 8.195221 106.855484 -31.239275 -9.461397 104.187431
[L_mid_hand02]
34 105.572853 -4.139662 -10.864139 -142.331345 25.752670 -28.774628 106.211075
35 105.572853 -4.139662 -10.864139 -142.331345 25.752670 -28.774628 106.211075
[L_mid_hand03]
34 104.641464 17.579376 -3.913581 -16.122810 9.734291 34.223598 106.179977
35 104.641464 17.579376 -3.913581 -16.122810 9.734291 34.223598 106.179977
[null_rope02_connect]
34 328.732849 0.000179 -0.000119 174.610336 81.478409 -39.424759 328.732849
35 328.732849 0.000179 -0.000119 174.610336 81.478409 -39.424759 328.732849
[Rope2_Seg01]
34 0.000076 0.000112 0.000153 121.124298 52.990192 -109.239113 0.000204
35 0.000076 0.000112 0.000153 119.072113 52.120579 -111.152245 0.000204
[Rope2_Seg02]
34 139.999741 -0.000060 -0.000119 -0.626015 16.829172 -8.633104 139.999756
35 139.999741 -0.000060 -0.000119 -0.431743 16.544071 -8.790539 139.999756
[Rope2_Seg03]
34 140.000107 0.000030 0.000000 18.671244 16.574905 -17.883387 140.000107
35 140.000107 0.000030 0.000000 16.916483 16.103746 -17.622349 140.000107
[Rope2_Seg04]
34 139.999802 0.000000 -0.000060 -17.444950 10.898338 -1.001856 139.999802
35 139.999802 0.000000 -0.000060 -16.365986 11.199541 -0.890956 139.999802
[Rope2_Seg05]
34 139.999985 -0.000060 0.000119 -47.916542 3.316649 19.498564 139.999985
35 139.999985 -0.000060 0.000119 -43.943653 3.387034 17.223484 139.999985
[Rope2_Seg06]
34 139.999893 -0.000030 -0.000119 -6.592627 -4.022733 5.931314 139.999893
35 139.999893 -0.000030 -0.000119 -7.109427 -2.762480 5.334937 139.999893
[Rope2_Seg07]
34 139.999893 0.000060 -0.000060 -2.669205 -1.982138 2.789171 139.999893
35 139.999893 0.000060 -0.000060 -3.033870 -1.429558 2.577952 139.999893
[Rope2_Seg09]
34 121.338966 0.000089 -0.000060 33.793236 -1.359788 -0.847141 121.338966
35 121.338966 0.000089 -0.000060 33.793236 -1.359788 -0.847141 121.338966
[R_mid_hand01]
34 104.680779 11.144459 -10.335981 -41.523792 25.424656 28.595957 105.778534
35 104.680779 11.144459 -10.335981 -41.523792 25.424656 28.595957 105.778534
[R_mid_hand02]
34 104.070427 2.443552 8.231699 72.847389 -32.746803 10.013901 104.424065
35 104.070427 2.443552 8.231699 72.847389 -32.746803 10.013901 104.424065
[R_mid_hand03]
34 106.028137 -11.221827 -5.996406 -167.901306 10.259192 -37.009720 106.788818
35 106.028137 -11.221827 -5.996406 -167.901306 10.259192 -37.009720 106.788818
[spine02]
34 129.756927 0.001550 0.000119 0.360061 -4.044797 -12.915058 129.756927
35 129.756927 0.001550 0.000119 0.360061 -4.044797 -12.915058 129.756927
[spine03]
34 78.613846 0.087372 -4.898873 1.896495 3.831288 16.473045 78.766380
35 78.613846 0.087372 -4.898873 1.896495 3.831288 16.473045 78.766380
[pelvis]
34 169.435242 0.051022 0.000000 -0.060465 -0.180225 14.087930 169.435257
35 169.435242 0.051022 0.000000 -0.060465 -0.180225 14.087930 169.435257
[null_rope03_connect]
34 -1.257226 -2.466202 137.391083 -168.629745 -89.386742 -148.244797 137.418976
35 -1.257226 -2.466202 137.391083 -168.629776 -89.386429 -148.244614 137.418976
[null_rope04_connect]
34 -1.259640 -2.480268 -137.844437 -168.629745 -89.386742 -148.244797 137.872513
35 -1.259640 -2.480268 -137.844437 -168.629776 -89.386429 -148.244614 137.872513
[Rope3_Seg01]
34 0.000000 0.000000 0.000000 -131.456100 5.236084 -98.956268 0.000000
35 0.000000 0.000000 0.000000 -131.298431 4.693988 -96.267700 0.000000
[Rope3_Seg02]
34 139.999924 -0.000119 0.000060 -3.013270 -5.833344 4.119043 139.999924
35 139.999924 -0.000119 0.000060 -2.626146 -4.642491 5.288671 139.999924
[Rope3_Seg03]
34 139.999924 -0.000119 0.000119 -3.693575 -6.362725 5.531544 139.999924
35 139.999924 -0.000119 0.000119 -3.499249 -4.705722 7.092650 139.999924
[Rope3_Seg04]
34 139.999924 0.000119 0.000000 -5.370741 -6.675396 8.918008 139.999924
35 139.999924 0.000119 0.000000 -5.439301 -4.264199 10.807578 139.999924
[Rope3_Seg05]
34 139.999924 -0.000238 0.000060 0.031737 -8.756742 -9.211763 139.999924
35 139.999924 -0.000238 0.000060 -0.366748 -10.052010 -9.554356 139.999924
[Rope3_Seg06]
34 139.999893 -0.000119 -0.000060 1.286876 -5.940213 -12.525722 139.999893
35 139.999893 -0.000119 -0.000060 1.467058 -7.899930 -13.496519 139.999893
[Rope3_Seg07]
34 139.999771 0.000060 -0.000119 0.692855 -3.784809 -5.174327 139.999771
35 139.999771 0.000060 -0.000119 0.743195 -4.440751 -5.320057 139.999771
[Rope3_Seg08]
34 139.999985 -0.000060 0.000000 0.622701 -2.302156 -3.078204 139.999985
35 139.999985 -0.000060 0.000000 0.667807 -2.657065 -3.116038 139.999985
[Rope3_Seg09]
34 90.185997 -0.000179 -0.000060 89.793228 -1.359877 -0.847183 90.185997
35 90.185997 -0.000179 -0.000060 89.793228 -1.359877 -0.847183 90.185997
[R_rear_hand01]
34 103.366196 -6.073594 -10.757982 -161.551193 16.666374 -30.088671 104.101845
35 103.366196 -6.073594 -10.757982 -161.551193 16.666374 -30.088671 104.101845
[R_rear_hand02]
34 100.509819 12.039542 -7.992327 -34.280552 19.289745 28.875523 101.543350
35 100.509819 12.039542 -7.992327 -34.280552 19.289745 28.875523 101.543350
[R_rear_hand03]
34 101.539970 5.215704 5.435467 83.366440 -30.933914 7.284830 101.819031
35 101.539970 5.215704 5.435467 83.366440 -30.933914 7.284830 101.819031
[Rope4_Seg01]
34 0.000010 0.000038 -0.000114 43.912098 28.616993 -112.213097 0.000121
35 0.000010 0.000038 -0.000114 45.396301 29.346905 -109.148445 0.000121
[Rope4_Seg02]
34 139.999985 0.000060 0.000119 0.038704 0.341755 4.122452 139.999985
35 139.999985 0.000060 0.000119 -0.112200 -0.687775 3.306587 139.999985
[Rope4_Seg03]
34 139.999924 0.000000 -0.000238 -0.166572 0.405993 5.621686 139.999924
35 139.999924 0.000000 -0.000238 -0.244975 -1.023444 4.337507 139.999924
[Rope4_Seg04]
34 139.999985 0.000000 0.000119 -0.752943 -2.860225 7.183968 139.999985
35 139.999985 0.000000 0.000119 -0.362090 -5.847891 3.725071 139.999985
[Rope4_Seg05]
34 139.999802 -0.000060 -0.000119 -0.872256 7.623844 14.021538 139.999802
35 139.999802 -0.000060 -0.000119 -0.188798 6.623328 13.716311 139.999802
[Rope4_Seg06]
34 139.999924 0.000000 0.000060 -1.014493 9.328057 9.248375 139.999924
35 139.999924 0.000000 0.000060 -0.909557 11.366865 12.396267 139.999924
[Rope4_Seg07]
34 139.999802 0.000000 0.000000 -1.672099 3.671407 5.111346 139.999802
35 139.999802 0.000000 0.000000 -1.926943 4.208232 6.185443 139.999802
[Rope4_Seg08]
34 139.999924 0.000000 0.000119 -2.787102 1.994196 2.971699 139.999924
35 139.999924 0.000000 0.000119 -3.032198 2.234496 3.565303 139.999924
[Rope4_Seg09]
34 90.185791 0.000060 0.000060 -135.617828 2.228885 0.850567 90.185791
35 90.185791 0.000060 0.000060 -135.617828 2.228885 0.850567 90.185791
[L_rear_hand01]
34 101.696655 -8.392275 -7.654577 -34.454281 -18.946800 151.655121 102.329041
35 101.696655 -8.392275 -7.654577 -34.454281 -18.946800 151.655121 102.329041
[L_rear_hand02]
34 102.726799 -1.568258 5.773216 83.407906 30.330435 172.796509 102.900848
35 102.726799 -1.568258 5.773216 83.407906 30.330435 172.796509 102.900848
[L_rear_hand03]
34 104.552910 9.721220 -10.420293 -161.379868 -16.473232 -150.512238 105.519653
35 104.552910 9.721220 -10.420293 -161.379868 -16.473232 -150.512238 105.519653
